{
	"accessors": [
		{
			"bufferView": 2,
			"componentType": 5126,
			"count": 825,
			"max": [20.0, 20.0, 47.0],
			"min": [-20.0, -20.0, -2.500332832336426],
			"type": "VEC3"
		},
		{
			"bufferView": 2,
			"byteOffset": 9900,
			"componentType": 5126,
			"count": 825,
			"max": [1.0, 1.0, 1.0],
			"min": [-1.0, -1.0, -1.0],
			"type": "VEC3"
		},
		{
			"bufferView": 1,
			"componentType": 5126,
			"count": 825,
			"max": [0.9950000047683716, 0.9781269431114197],
			"min": [0.004999999888241291, 0.004999999888241291],
			"type": "VEC2"
		},
		{
			"bufferView": 1,
			"byteOffset": 6600,
			"componentType": 5126,
			"count": 825,
			"max": [0.9950000047683716, 0.9781269431114197],
			"min": [0.004999999888241291, 0.004999999888241291],
			"type": "VEC2"
		},
		{
			"bufferView": 0,
			"componentType": 5125,
			"count": 3066,
			"type": "SCALAR"
		}
	],
	"asset": {
		"extras": {
			"author": "subtixx (https://sketchfab.com/subtixx)",
			"license": "CC-BY-NC-4.0 (http://creativecommons.org/licenses/by-nc/4.0/)",
			"source": "https://sketchfab.com/3d-models/pacman-ghost-f9c2495402e442698b9f58d6540a6491",
			"title": "PacMan Ghost"
		},
		"generator": "Sketchfab-12.68.0",
		"version": "2.0"
	},
	"bufferViews": [
		{
			"buffer": 0,
			"byteLength": 12264,
			"name": "floatBufferViews",
			"target": 34963
		},
		{
			"buffer": 0,
			"byteLength": 13200,
			"byteOffset": 12264,
			"byteStride": 8,
			"name": "floatBufferViews",
			"target": 34962
		},
		{
			"buffer": 0,
			"byteLength": 19800,
			"byteOffset": 25464,
			"byteStride": 12,
			"name": "floatBufferViews",
			"target": 34962
		}
	],
	"buffers": [
		{
			"byteLength": 45264,
			"uri": "scene.bin"
		}
	],
	"images": [
		{
			"uri": "textures/Object001_mtl_baseColor.jpeg"
		}
	],
	"materials": [
		{
			"doubleSided": true,
			"name": "Object001_mtl",
			"pbrMetallicRoughness": {
				"baseColorTexture": {
					"index": 0
				},
				"metallicFactor": 0.0,
				"roughnessFactor": 0.8929713596497552
			}
		}
	],
	"meshes": [
		{
			"name": "Object001_Object001_mtl_0",
			"primitives": [
				{
					"attributes": {
						"NORMAL": 1,
						"POSITION": 0,
						"TEXCOORD_0": 2,
						"TEXCOORD_1": 3
					},
					"indices": 4,
					"material": 0,
					"mode": 4
				}
			]
		}
	],
	"nodes": [
		{
			"children": [1],
			"matrix": [
				1.0, 0.0, 0.0, 0.0, 0.0, 2.220446049250313e-16, -1.0, 0.0, 0.0, 1.0,
				2.220446049250313e-16, 0.0, 0.0, 0.0, 0.0, 1.0
			],
			"name": "Sketchfab_model"
		},
		{
			"children": [2],
			"matrix": [
				1.0, 0.0, 0.0, 0.0, 0.0, 0.0, 1.0, 0.0, 0.0, -1.0, 0.0, 0.0, 0.0, 0.0,
				0.0, 1.0
			],
			"name": "Enter a title.fbx"
		},
		{
			"children": [3],
			"name": "RootNode"
		},
		{
			"children": [4],
			"matrix": [
				1.0, 0.0, 0.0, 0.0, 0.0, 2.220446049250313e-16, -1.0, 0.0, 0.0, 1.0,
				2.220446049250313e-16, 0.0, 0.0, -2.500332832336426, 0.0, 1.0
			],
			"name": "Object001"
		},
		{
			"children": [5],
			"matrix": [
				1.0, 0.0, -0.0, 0.0, 0.0, 1.0, 0.0, 0.0, 0.0, 0.0, 1.0, 0.0, 0.0, 0.0,
				2.500332832336426, 1.0
			],
			"name": "Object_4"
		},
		{
			"mesh": 0,
			"name": "Object001_Object001_mtl_0"
		}
	],
	"samplers": [
		{
			"magFilter": 9729,
			"minFilter": 9987,
			"wrapS": 10497,
			"wrapT": 10497
		}
	],
	"scene": 0,
	"scenes": [
		{
			"name": "Sketchfabscene",
			"nodes": [0]
		}
	],
	"textures": [
		{
			"sampler": 0,
			"source": 0
		}
	]
}
