{
    "asset" : {
        "generator" : "Khronos glTF Blender I/O v1.3.48",
        "version" : "2.0"
    },
    "scene" : 0,
    "scenes" : [
        {
            "name" : "Scene",
            "nodes" : [
                0,
                1,
                2,
                3,
                4
            ]
        }
    ],
    "nodes" : [
        {
            "name" : "Light",
            "rotation" : [
                0.16907575726509094,
                0.7558803558349609,
                -0.27217137813568115,
                0.570947527885437
            ],
            "translation" : [
                4.076245307922363,
                5.903861999511719,
                -1.0054539442062378
            ]
        },
        {
            "name" : "Camera",
            "rotation" : [
                0.483536034822464,
                0.33687159419059753,
                -0.20870360732078552,
                0.7804827094078064
            ],
            "translation" : [
                7.358891487121582,
                4.958309173583984,
                6.925790786743164
            ]
        },
        {
            "mesh" : 0,
            "name" : "Head",
            "scale" : [
                1.162443995475769,
                1.162443995475769,
                1.162443995475769
            ],
            "translation" : [
                -0.023157119750976562,
                1.3541796207427979,
                0.43044722080230713
            ]
        },
        {
            "mesh" : 1,
            "name" : "Eye white",
            "scale" : [
                0.46547406911849976,
                0.46547406911849976,
                0.46547406911849976
            ],
            "translation" : [
                -0.8612076044082642,
                1.3541796207427979,
                0.33801186084747314
            ]
        },
        {
            "mesh" : 2,
            "name" : "Pupil",
            "scale" : [
                0.2108544111251831,
                0.2108544111251831,
                0.2108544111251831
            ],
            "translation" : [
                -1.1154391765594482,
                1.3541796207427979,
                0.31350481510162354
            ]
        }
    ],
    "materials" : [
        {
            "doubleSided" : true,
            "emissiveFactor" : [
                0,
                0,
                0
            ],
            "name" : "Body color",
            "pbrMetallicRoughness" : {
                "baseColorFactor" : [
                    0.028651632368564606,
                    0.2430407553911209,
                    0.8000000715255737,
                    1
                ],
                "metallicFactor" : 0,
                "roughnessFactor" : 0.5
            }
        },
        {
            "doubleSided" : true,
            "emissiveFactor" : [
                0,
                0,
                0
            ],
            "name" : "Material.001",
            "pbrMetallicRoughness" : {
                "baseColorFactor" : [
                    0.4575314223766327,
                    0.4575314223766327,
                    0.4575314223766327,
                    1
                ],
                "metallicFactor" : 0,
                "roughnessFactor" : 0.5
            }
        },
        {
            "doubleSided" : true,
            "emissiveFactor" : [
                0,
                0,
                0
            ],
            "name" : "Material.002",
            "pbrMetallicRoughness" : {
                "baseColorFactor" : [
                    0,
                    0,
                    0,
                    1
                ],
                "metallicFactor" : 0,
                "roughnessFactor" : 0.5
            }
        }
    ],
    "meshes" : [
        {
            "name" : "Sphere.001",
            "primitives" : [
                {
                    "attributes" : {
                        "POSITION" : 0,
                        "NORMAL" : 1,
                        "TEXCOORD_0" : 2
                    },
                    "indices" : 3,
                    "material" : 0
                }
            ]
        },
        {
            "name" : "Sphere.002",
            "primitives" : [
                {
                    "attributes" : {
                        "POSITION" : 4,
                        "NORMAL" : 5,
                        "TEXCOORD_0" : 6
                    },
                    "indices" : 7,
                    "material" : 1
                }
            ]
        },
        {
            "name" : "Sphere.003",
            "primitives" : [
                {
                    "attributes" : {
                        "POSITION" : 8,
                        "NORMAL" : 9,
                        "TEXCOORD_0" : 10
                    },
                    "indices" : 7,
                    "material" : 2
                }
            ]
        }
    ],
    "accessors" : [
        {
            "bufferView" : 0,
            "componentType" : 5126,
            "count" : 755,
            "max" : [
                1.3161340951919556,
                1,
                1.3029714822769165
            ],
            "min" : [
                -1.2762919664382935,
                -2.261780261993408,
                -1.2894545793533325
            ],
            "type" : "VEC3"
        },
        {
            "bufferView" : 1,
            "componentType" : 5126,
            "count" : 755,
            "type" : "VEC3"
        },
        {
            "bufferView" : 2,
            "componentType" : 5126,
            "count" : 755,
            "type" : "VEC2"
        },
        {
            "bufferView" : 3,
            "componentType" : 5123,
            "count" : 3636,
            "type" : "SCALAR"
        },
        {
            "bufferView" : 4,
            "componentType" : 5126,
            "count" : 1984,
            "max" : [
                1.000000238418579,
                1,
                1.0000003576278687
            ],
            "min" : [
                -0.9999998211860657,
                -1,
                -1
            ],
            "type" : "VEC3"
        },
        {
            "bufferView" : 5,
            "componentType" : 5126,
            "count" : 1984,
            "type" : "VEC3"
        },
        {
            "bufferView" : 6,
            "componentType" : 5126,
            "count" : 1984,
            "type" : "VEC2"
        },
        {
            "bufferView" : 7,
            "componentType" : 5123,
            "count" : 2880,
            "type" : "SCALAR"
        },
        {
            "bufferView" : 8,
            "componentType" : 5126,
            "count" : 1984,
            "max" : [
                1.000000238418579,
                1,
                1.0000003576278687
            ],
            "min" : [
                -0.9999998211860657,
                -1,
                -1
            ],
            "type" : "VEC3"
        },
        {
            "bufferView" : 9,
            "componentType" : 5126,
            "count" : 1984,
            "type" : "VEC3"
        },
        {
            "bufferView" : 10,
            "componentType" : 5126,
            "count" : 1984,
            "type" : "VEC2"
        }
    ],
    "bufferViews" : [
        {
            "buffer" : 0,
            "byteLength" : 9060,
            "byteOffset" : 0
        },
        {
            "buffer" : 0,
            "byteLength" : 9060,
            "byteOffset" : 9060
        },
        {
            "buffer" : 0,
            "byteLength" : 6040,
            "byteOffset" : 18120
        },
        {
            "buffer" : 0,
            "byteLength" : 7272,
            "byteOffset" : 24160
        },
        {
            "buffer" : 0,
            "byteLength" : 23808,
            "byteOffset" : 31432
        },
        {
            "buffer" : 0,
            "byteLength" : 23808,
            "byteOffset" : 55240
        },
        {
            "buffer" : 0,
            "byteLength" : 15872,
            "byteOffset" : 79048
        },
        {
            "buffer" : 0,
            "byteLength" : 5760,
            "byteOffset" : 94920
        },
        {
            "buffer" : 0,
            "byteLength" : 23808,
            "byteOffset" : 100680
        },
        {
            "buffer" : 0,
            "byteLength" : 23808,
            "byteOffset" : 124488
        },
        {
            "buffer" : 0,
            "byteLength" : 15872,
            "byteOffset" : 148296
        }
    ],
    "buffers" : [
        {
            "byteLength" : 164168,
            "uri" : "data:application/octet-stream;base64,"
        }
    ]
}
